HIERARCHY
ROOT Hips
{
	OFFSET 0.000000 83.214638 0.000000
	CHANNELS 6 Xposition Yposition Zposition Xrotation Yrotation Zrotation
	JOINT Pelvis
	{
		OFFSET 0.000000 0.000000 0.000000
		CHANNELS 3 Xrotation Yrotation Zrotation
		JOINT LeftUpLeg
		{
			OFFSET 8.479700 -4.795502 -0.379100
			CHANNELS 3 Xrotation Yrotation Zrotation
			JOINT LeftLeg
			{
				OFFSET 0.024144 -32.555107 0.112900
				CHANNELS 3 Xrotation Yrotation Zrotation
				JOINT LeftFoot
				{
					OFFSET -0.024144 -32.638630 -3.012600
					CHANNELS 3 Xrotation Yrotation Zrotation
					JOINT LeftToeBase
					{
						OFFSET 0.970200 -13.225400 11.864200
						CHANNELS 3 Xrotation Yrotation Zrotation
						End Site
						{
							OFFSET 0.000000 12.319262 0.000000
						}
					}
					JOINT LFootTongue
					{
						OFFSET 1.142400 -1.059800 6.665200
						CHANNELS 3 Xrotation Yrotation Zrotation
						End Site
						{
							OFFSET 0.000000 12.319262 0.000000
						}
					}
				}
				JOINT LeftPantLeg
				{
					OFFSET 0.918482 -16.533964 -2.284700
					CHANNELS 3 Xrotation Yrotation Zrotation
					End Site
					{
						OFFSET 0.350399 24.744368 0.000000
					}
				}
			}
		}
		JOINT RightUpLeg
		{
			OFFSET -8.479700 -4.795502 -0.379100
			CHANNELS 3 Xrotation Yrotation Zrotation
			JOINT RightLeg
			{
				OFFSET -0.023144 -32.555092 0.112900
				CHANNELS 3 Xrotation Yrotation Zrotation
				JOINT RightFoot
				{
					OFFSET 0.023144 -32.638641 -3.012700
					CHANNELS 3 Xrotation Yrotation Zrotation
					JOINT RightToeBase
					{
						OFFSET -0.970200 -13.225400 11.864200
						CHANNELS 3 Xrotation Yrotation Zrotation
						End Site
						{
							OFFSET 0.000000 12.319244 0.000000
						}
					}
					JOINT RFootTongue
					{
						OFFSET -1.142200 -1.059800 6.665200
						CHANNELS 3 Xrotation Yrotation Zrotation
						End Site
						{
							OFFSET 0.000000 12.319243 0.000000
						}
					}
				}
				JOINT RightPantLeg
				{
					OFFSET -0.919482 -16.533978 -2.284800
					CHANNELS 3 Xrotation Yrotation Zrotation
					End Site
					{
						OFFSET -0.350400 24.744419 0.000000
					}
				}
			}
		}
	}
	JOINT Spine
	{
		OFFSET 0.000000 7.722000 1.166200
		CHANNELS 3 Xrotation Yrotation Zrotation
		JOINT Spine1
		{
			OFFSET 0.000000 12.024101 0.248800
			CHANNELS 3 Xrotation Yrotation Zrotation
			JOINT Spine2
			{
				OFFSET 0.000000 11.502998 -0.491200
				CHANNELS 3 Xrotation Yrotation Zrotation
				JOINT Neck
				{
					OFFSET 0.000000 18.430702 -3.123100
					CHANNELS 3 Xrotation Yrotation Zrotation
					JOINT Head
					{
						OFFSET 0.000000 9.051102 1.034000
						CHANNELS 3 Xrotation Yrotation Zrotation
						JOINT HairB
						{
							OFFSET 0.208400 24.786102 24.822300
							CHANNELS 3 Xrotation Yrotation Zrotation
							End Site
							{
								OFFSET 0.000000 32.263779 0.000000
							}
						}
						JOINT HairA
						{
							OFFSET -7.081100 24.428299 23.196600
							CHANNELS 3 Xrotation Yrotation Zrotation
							End Site
							{
								OFFSET 0.000000 32.263779 0.000000
							}
						}
						JOINT Hat
						{
							OFFSET 16.728800 15.048294 -15.439601
							CHANNELS 3 Xrotation Yrotation Zrotation
							End Site
							{
								OFFSET 0.000000 32.263779 0.000000
							}
						}
					}
				}
				JOINT LeftShoulder
				{
					OFFSET 6.197800 13.665199 -4.064700
					CHANNELS 3 Xrotation Yrotation Zrotation
					JOINT LeftArm
					{
						OFFSET 7.778100 -0.187103 -1.709300
						CHANNELS 3 Xrotation Yrotation Zrotation
						JOINT LeftForeArm
						{
							OFFSET 22.049376 0.000000 0.000000
							CHANNELS 3 Xrotation Yrotation Zrotation
							JOINT LeftHand
							{
								OFFSET 23.009392 0.000000 0.000000
								CHANNELS 3 Xrotation Yrotation Zrotation
								JOINT LeftHandThumb1
								{
									OFFSET 3.507191 -2.063065 3.133727
									CHANNELS 3 Xrotation Yrotation Zrotation
									JOINT LeftHandThumb2
									{
										OFFSET 3.101337 -1.790558 1.790558
										CHANNELS 3 Xrotation Yrotation Zrotation
										JOINT LeftHandThumb3
										{
											OFFSET 3.058640 -1.765907 1.765906
											CHANNELS 3 Xrotation Yrotation Zrotation
											End Site
											{
												OFFSET -0.415260 3.926476 -0.049563
											}
										}
									}
								}
								JOINT LeftHandIndex1
								{
									OFFSET 11.334419 -0.901459 3.706815
									CHANNELS 3 Xrotation Yrotation Zrotation
									JOINT LeftHandIndex2
									{
										OFFSET 3.283112 0.000000 0.000000
										CHANNELS 3 Xrotation Yrotation Zrotation
										JOINT LeftHandIndex3
										{
											OFFSET 3.323853 0.000000 0.000000
											CHANNELS 3 Xrotation Yrotation Zrotation
											End Site
											{
												OFFSET -1.135597 3.097809 0.402452
											}
										}
									}
								}
								JOINT LeftHandMiddle1
								{
									OFFSET 11.335861 0.000000 0.000000
									CHANNELS 3 Xrotation Yrotation Zrotation
									JOINT LeftHandMiddle2
									{
										OFFSET 3.410492 0.000000 0.000000
										CHANNELS 3 Xrotation Yrotation Zrotation
										JOINT LeftHandMiddle3
										{
											OFFSET 3.312172 0.000000 0.000000
											CHANNELS 3 Xrotation Yrotation Zrotation
											End Site
											{
												OFFSET -1.150200 3.080154 0.400270
											}
										}
									}
								}
								JOINT LeftHandRing1
								{
									OFFSET 11.514786 -0.013176 -3.003090
									CHANNELS 3 Xrotation Yrotation Zrotation
									JOINT LeftHandRing2
									{
										OFFSET 3.053307 0.000000 0.000000
										CHANNELS 3 Xrotation Yrotation Zrotation
										JOINT LeftHandRing3
										{
											OFFSET 3.295807 0.000000 0.000000
											CHANNELS 3 Xrotation Yrotation Zrotation
											End Site
											{
												OFFSET -1.281006 3.013344 0.375733
											}
										}
									}
								}
								JOINT LeftHandPinky1
								{
									OFFSET 10.518692 -0.960396 -5.730441
									CHANNELS 3 Xrotation Yrotation Zrotation
									JOINT LeftHandPinky2
									{
										OFFSET 2.861649 0.000000 0.000000
										CHANNELS 3 Xrotation Yrotation Zrotation
										JOINT LeftHandPinky3
										{
											OFFSET 2.863380 0.000000 0.000000
											CHANNELS 3 Xrotation Yrotation Zrotation
											End Site
											{
												OFFSET -0.843597 2.711159 0.369971
											}
										}
									}
								}
							}
							JOINT LSleeve
							{
								OFFSET 6.676277 -0.344902 -1.011730
								CHANNELS 3 Xrotation Yrotation Zrotation
								End Site
								{
									OFFSET 0.000000 14.885353 0.000000
								}
							}
						}
					}
				}
				JOINT RightShoulder
				{
					OFFSET -6.197800 13.665199 -4.064700
					CHANNELS 3 Xrotation Yrotation Zrotation
					JOINT RightArm
					{
						OFFSET -7.778100 -0.187103 -1.709300
						CHANNELS 3 Xrotation Yrotation Zrotation
						JOINT RightForeArm
						{
							OFFSET -22.049376 0.000000 0.000000
							CHANNELS 3 Xrotation Yrotation Zrotation
							JOINT RightHand
							{
								OFFSET -23.009392 0.000000 0.000000
								CHANNELS 3 Xrotation Yrotation Zrotation
								JOINT RightHandThumb1
								{
									OFFSET -3.507191 -2.063065 3.133727
									CHANNELS 3 Xrotation Yrotation Zrotation
									JOINT RightHandThumb2
									{
										OFFSET -3.101337 -1.790558 1.790558
										CHANNELS 3 Xrotation Yrotation Zrotation
										JOINT RightHandThumb3
										{
											OFFSET -3.058640 -1.765907 1.765906
											CHANNELS 3 Xrotation Yrotation Zrotation
											End Site
											{
												OFFSET 0.415260 3.926476 -0.049563
											}
										}
									}
								}
								JOINT RightHandIndex1
								{
									OFFSET -11.334419 -0.901459 3.706815
									CHANNELS 3 Xrotation Yrotation Zrotation
									JOINT RightHandIndex2
									{
										OFFSET -3.283112 0.000000 0.000000
										CHANNELS 3 Xrotation Yrotation Zrotation
										JOINT RightHandIndex3
										{
											OFFSET -3.323853 0.000000 0.000000
											CHANNELS 3 Xrotation Yrotation Zrotation
											End Site
											{
												OFFSET 1.135597 3.097809 0.402452
											}
										}
									}
								}
								JOINT RightHandMiddle1
								{
									OFFSET -11.335861 0.000000 0.000000
									CHANNELS 3 Xrotation Yrotation Zrotation
									JOINT RightHandMiddle2
									{
										OFFSET -3.410492 0.000000 0.000000
										CHANNELS 3 Xrotation Yrotation Zrotation
										JOINT RightHandMiddle3
										{
											OFFSET -3.312172 0.000000 0.000000
											CHANNELS 3 Xrotation Yrotation Zrotation
											End Site
											{
												OFFSET 1.150200 3.080154 0.400270
											}
										}
									}
								}
								JOINT RightHandRing1
								{
									OFFSET -11.514786 -0.013176 -3.003090
									CHANNELS 3 Xrotation Yrotation Zrotation
									JOINT RightHandRing2
									{
										OFFSET -3.053307 0.000000 0.000000
										CHANNELS 3 Xrotation Yrotation Zrotation
										JOINT RightHandRing3
										{
											OFFSET -3.295807 0.000000 0.000000
											CHANNELS 3 Xrotation Yrotation Zrotation
											End Site
											{
												OFFSET 1.281006 3.013344 0.375733
											}
										}
									}
								}
								JOINT RightHandPinky1
								{
									OFFSET -10.518692 -0.960396 -5.730441
									CHANNELS 3 Xrotation Yrotation Zrotation
									JOINT RightHandPinky2
									{
										OFFSET -2.861649 0.000000 0.000000
										CHANNELS 3 Xrotation Yrotation Zrotation
										JOINT RightHandPinky3
										{
											OFFSET -2.863380 0.000000 0.000000
											CHANNELS 3 Xrotation Yrotation Zrotation
											End Site
											{
												OFFSET 0.843597 2.711159 0.369971
											}
										}
									}
								}
							}
							JOINT RSleeve
							{
								OFFSET -6.676277 -0.344902 -1.011730
								CHANNELS 3 Xrotation Yrotation Zrotation
								End Site
								{
									OFFSET 0.000000 14.885353 0.000000
								}
							}
						}
					}
				}
				JOINT Backpack
				{
					OFFSET 0.000000 -2.471497 36.677502
					CHANNELS 3 Xrotation Yrotation Zrotation
					End Site
					{
						OFFSET 0.000000 20.427315 0.000000
					}
				}
				JOINT Hood
				{
					OFFSET 0.000000 18.754097 -10.431000
					CHANNELS 3 Xrotation Yrotation Zrotation
					JOINT Hood1
					{
						OFFSET 0.000000 -5.011002 -7.685901
						CHANNELS 3 Xrotation Yrotation Zrotation
						End Site
						{
							OFFSET 0.000000 9.175140 0.000000
						}
					}
				}
				JOINT LHoodieString
				{
					OFFSET 5.250500 16.397697 3.089900
					CHANNELS 3 Xrotation Yrotation Zrotation
					JOINT LHoodieString1
					{
						OFFSET 0.257700 -6.364304 3.694600
						CHANNELS 3 Xrotation Yrotation Zrotation
						JOINT LHoodieString2
						{
							OFFSET 0.000000 -9.643799 2.679100
							CHANNELS 3 Xrotation Yrotation Zrotation
							End Site
							{
								OFFSET 0.000000 10.009018 0.000000
							}
						}
					}
				}
				JOINT RHoodieString
				{
					OFFSET -5.250500 16.397697 3.089900
					CHANNELS 3 Xrotation Yrotation Zrotation
					JOINT RHoodieString1
					{
						OFFSET -0.257700 -6.364304 3.694600
						CHANNELS 3 Xrotation Yrotation Zrotation
						JOINT RHoodieString2
						{
							OFFSET 0.000000 -9.643799 2.679100
							CHANNELS 3 Xrotation Yrotation Zrotation
							End Site
							{
								OFFSET 0.000000 10.009018 0.000000
							}
						}
					}
				}
			}
			JOINT LBackpack_Strap
			{
				OFFSET 15.223200 -7.719803 -6.610900
				CHANNELS 3 Xrotation Yrotation Zrotation
				End Site
				{
					OFFSET 0.000000 16.040596 0.000000
				}
			}
			JOINT RBackpack_Strap
			{
				OFFSET -15.223000 -7.719803 -6.610900
				CHANNELS 3 Xrotation Yrotation Zrotation
				End Site
				{
					OFFSET 0.000000 16.040596 0.000000
				}
			}
		}
	}
	JOINT BoyFacialAnim_Joint
	{
		OFFSET 1.000000 -82.208099 -1.550900
		CHANNELS 3 Xrotation Yrotation Zrotation
		End Site
		{
			OFFSET 0.000000 30.012791 0.000000
		}
	}
}
MOTION
Frames: 4
Frame Time: 0.016667
49.159790 65.679047 186.876877 1.124801 28.028038 -15.515866 -0.000000 -0.000001 -0.000001 -43.999539 12.066341 2.726958 106.200139 8.666336 0.483578 9.600703 1.236646 20.176333 0.000002 -0.000000 -0.000001 0.000002 -0.000000 -0.000001 -0.000002 0.000000 0.000004 -43.236692 4.771501 -2.627536 64.398924 9.602139 0.362689 -25.991588 -0.988945 14.679924 -0.000000 0.000002 -0.000000 -0.000000 0.000002 -0.000000 -0.000003 0.000002 -0.000004 4.423588 -2.675449 -0.929597 3.685479 -1.693003 1.426705 3.657014 -1.820088 1.396207 0.856918 2.472371 0.809329 -13.888070 30.928596 5.475022 0.000000 0.000002 -0.000000 0.000000 0.000002 -0.000000 0.000000 0.000002 -0.000000 0.537710 -0.925232 -8.721431 28.704785 -17.140800 -55.244370 0.000004 -63.812026 0.000027 -14.162590 -33.316259 32.504068 5.358061 -0.141370 9.666160 3.545770 27.155816 3.560563 -0.000002 -0.000003 -0.000002 -1.578833 0.825939 -19.703501 0.405084 2.870996 -21.069201 -0.000001 0.000000 -0.000002 0.409504 7.162239 -25.647936 0.416494 2.993232 -22.185339 -0.000001 0.000003 -0.000001 2.386886 10.570836 -32.882361 0.471663 2.115287 -18.421985 -0.000001 0.000000 -0.000002 2.967955 13.388238 -36.938913 0.139966 1.667047 -18.441898 -0.000000 -0.000001 -0.000000 -0.000000 -0.000001 -0.000001 0.815844 -4.239272 12.335986 15.586531 20.224402 47.923312 -0.009103 92.611676 0.009003 -14.992146 28.643976 -6.764696 0.789354 -8.211549 -4.825405 0.020123 -13.361232 -9.371017 -0.000001 -0.000000 0.000001 -1.070481 -2.247355 17.231261 0.405442 -2.871961 21.079321 -0.000003 -0.000002 -0.000002 0.438996 -7.256203 26.595148 0.417434 -2.995671 22.211563 -0.000000 -0.000000 0.000002 2.698270 -11.184216 32.166096 0.472404 -2.116946 18.440374 0.000001 0.000001 -0.000001 4.305399 -16.260298 34.920992 0.139796 -1.666353 18.434708 -0.000001 0.000000 -0.000003 -0.000003 0.000002 -0.000000 0.000000 0.000000 0.000000 0.000000 0.000000 0.000000 0.000000 0.000000 0.000000 0.000000 0.000000 0.000000 0.000000 0.000000 0.000001 -0.000001 0.000000 -0.000000 0.000000 0.000000 0.000000 0.000000 0.000000 0.000001 -0.000001 0.000000 -0.000000 0.000000 0.000001 0.000002 0.000000 0.000001 0.000002 -0.000000 -0.000001 -0.000001 
51.811150 65.382462 191.583313 0.524295 28.406801 -16.063164 0.000000 -0.000000 -0.000000 -54.347214 11.350069 4.822200 107.384774 9.053054 0.455714 7.939932 0.605909 19.580918 0.000000 0.000001 -0.000002 0.000000 0.000001 -0.000002 -0.000003 0.000001 -0.000000 -37.923457 4.344574 -1.808082 66.524683 9.818067 0.494215 -32.186843 -1.592658 12.221235 0.000000 -0.000000 0.000000 0.000000 -0.000000 0.000000 0.000003 0.000003 0.000000 5.216478 -0.631458 -0.399496 4.311017 -0.536960 1.522724 4.300140 -0.688783 1.521629 0.463917 2.096615 0.947763 -14.996445 28.403026 5.305053 -0.000000 -0.000001 -0.000000 -0.000000 -0.000001 -0.000000 -0.000000 -0.000001 -0.000000 0.523715 -0.270281 -7.835306 34.348557 -17.343303 -56.852135 -0.000003 -59.199333 -0.000016 -16.618882 -33.493086 29.916778 5.358058 -0.141372 9.666164 3.545770 27.155809 3.560560 -0.000002 -0.000002 -0.000004 -1.578835 0.825939 -19.703499 0.405089 2.870996 -21.069204 0.000000 0.000001 -0.000002 0.409502 7.162239 -25.647931 0.416495 2.993231 -22.185344 -0.000004 -0.000000 0.000000 2.386884 10.570835 -32.882361 0.471660 2.115283 -18.421982 -0.000003 -0.000003 -0.000003 2.967955 13.388237 -36.938913 0.139966 1.667043 -18.441895 0.000001 0.000002 0.000002 0.000001 0.000001 -0.000001 0.730132 -2.285042 12.250234 5.243287 22.564746 51.239437 -0.007276 93.514893 0.007228 -16.491821 27.969626 -4.873447 0.789350 -8.211549 -4.825410 0.020118 -13.361232 -9.371018 0.000001 0.000000 -0.000000 -1.070484 -2.247356 17.231252 0.405445 -2.871961 21.079313 -0.000002 0.000001 0.000004 0.438993 -7.256204 26.595148 0.417435 -2.995670 22.211557 0.000000 -0.000001 0.000001 2.698269 -11.184216 32.166089 0.472406 -2.116949 18.440370 -0.000002 -0.000001 0.000000 4.305394 -16.260297 34.920988 0.139794 -1.666350 18.434703 -0.000001 -0.000002 -0.000000 0.000002 0.000001 -0.000000 0.000001 -0.000000 0.000001 0.000001 -0.000000 0.000001 0.000001 -0.000000 0.000001 0.000001 -0.000000 0.000001 0.000001 -0.000000 0.000003 0.000000 -0.000001 0.000001 0.000001 -0.000000 0.000001 0.000001 -0.000000 0.000003 0.000000 -0.000001 0.000001 0.000001 -0.000002 0.000002 0.000001 -0.000002 0.000002 0.000000 -0.000000 -0.000000 
54.905853 65.204140 196.289032 -0.011030 28.457418 -16.474281 0.000000 0.000000 0.000000 -63.421496 10.487765 5.869046 105.558688 9.843525 0.471327 6.953996 0.441969 18.944319 -0.000001 0.000001 0.000001 -0.000001 0.000001 -0.000001 -0.000001 0.000000 -0.000003 -31.483515 3.766587 -1.504911 66.779490 9.509674 0.628867 -37.926978 -1.300256 9.431885 -0.000000 -0.000002 0.000000 -0.000000 -0.000002 0.000000 0.000002 0.000001 -0.000001 5.593482 1.198773 0.367788 4.651095 0.654903 1.633866 4.657230 0.491970 1.673785 0.396498 1.761078 0.948530 -15.762635 26.254660 5.119162 -0.000000 0.000000 -0.000000 -0.000000 0.000000 -0.000000 -0.000000 0.000000 -0.000000 0.472295 0.823567 -6.563504 41.287046 -17.715624 -58.148706 0.000010 -58.979824 0.000004 -18.820672 -33.533493 26.792983 5.358058 -0.141371 9.666161 3.545771 27.155808 3.560561 0.000001 0.000004 -0.000006 -1.578837 0.825935 -19.703501 0.405085 2.870995 -21.069201 -0.000001 -0.000003 -0.000002 0.409504 7.162236 -25.647927 0.416497 2.993234 -22.185346 0.000000 0.000003 -0.000001 2.386885 10.570838 -32.882358 0.471661 2.115283 -18.421987 -0.000003 0.000001 0.000002 2.967955 13.388240 -36.938916 0.139967 1.667052 -18.441898 0.000002 0.000002 0.000000 -0.000000 0.000000 -0.000000 0.625968 0.265416 11.021706 -6.297819 23.802335 54.826898 0.000518 96.646931 -0.000553 -19.103276 24.520610 -3.410958 0.789353 -8.211545 -4.825407 0.020120 -13.361232 -9.371017 0.000001 0.000000 -0.000005 -1.070484 -2.247355 17.231252 0.405442 -2.871962 21.079313 -0.000000 0.000001 0.000002 0.438993 -7.256202 26.595152 0.417434 -2.995674 22.211563 -0.000002 0.000001 -0.000002 2.698265 -11.184218 32.166096 0.472405 -2.116948 18.440370 -0.000002 0.000000 0.000002 4.305395 -16.260300 34.920988 0.139796 -1.666350 18.434704 -0.000001 -0.000001 0.000000 0.000003 -0.000000 -0.000001 -0.000000 0.000000 -0.000000 -0.000000 0.000000 -0.000000 -0.000000 0.000000 -0.000000 -0.000000 0.000000 -0.000000 -0.000000 0.000000 0.000000 -0.000000 0.000000 0.000000 -0.000000 0.000000 -0.000000 -0.000000 0.000000 0.000000 -0.000000 0.000000 0.000000 -0.000000 0.000001 -0.000000 -0.000000 0.000001 -0.000000 0.000000 0.000000 0.000000 
54.905853 65.204140 196.289032 -0.011030 28.457418 -16.474281 0.000000 0.000000 0.000000 -63.421496 10.487765 5.869046 105.558688 9.843525 0.471327 6.953996 0.441969 18.944319 -0.000001 0.000001 0.000001 -0.000001 0.000001 -0.000001 -0.000001 0.000000 -0.000003 -31.483515 3.766587 -1.504911 66.779490 9.509674 0.628867 -37.926978 -1.300256 9.431885 -0.000000 -0.000002 0.000000 -0.000000 -0.000002 0.000000 0.000002 0.000001 -0.000001 5.593482 1.198773 0.367788 4.651095 0.654903 1.633866 4.657230 0.491970 1.673785 0.396498 1.761078 0.948530 -15.762635 26.254660 5.119162 -0.000000 0.000000 -0.000000 -0.000000 0.000000 -0.000000 -0.000000 0.000000 -0.000000 0.472295 0.823567 -6.563504 41.287046 -17.715624 -58.148706 0.000010 -58.979824 0.000004 -18.820672 -33.533493 26.792983 5.358058 -0.141371 9.666161 3.545771 27.155808 3.560561 0.000001 0.000004 -0.000006 -1.578837 0.825935 -19.703501 0.405085 2.870995 -21.069201 -0.000001 -0.000003 -0.000002 0.409504 7.162236 -25.647927 0.416497 2.993234 -22.185346 0.000000 0.000003 -0.000001 2.386885 10.570838 -32.882358 0.471661 2.115283 -18.421987 -0.000003 0.000001 0.000002 2.967955 13.388240 -36.938916 0.139967 1.667052 -18.441898 0.000002 0.000002 0.000000 -0.000000 0.000000 -0.000000 0.625968 0.265416 11.021706 -6.297819 23.802335 54.826898 0.000518 96.646931 -0.000553 -19.103276 24.520610 -3.410958 0.789353 -8.211545 -4.825407 0.020120 -13.361232 -9.371017 0.000001 0.000000 -0.000005 -1.070484 -2.247355 17.231252 0.405442 -2.871962 21.079313 -0.000000 0.000001 0.000002 0.438993 -7.256202 26.595152 0.417434 -2.995674 22.211563 -0.000002 0.000001 -0.000002 2.698265 -11.184218 32.166096 0.472405 -2.116948 18.440370 -0.000002 0.000000 0.000002 4.305395 -16.260300 34.920988 0.139796 -1.666350 18.434704 -0.000001 -0.000001 0.000000 0.000003 -0.000000 -0.000001 -0.000000 0.000000 -0.000000 -0.000000 0.000000 -0.000000 -0.000000 0.000000 -0.000000 -0.000000 0.000000 -0.000000 -0.000000 0.000000 0.000000 -0.000000 0.000000 0.000000 -0.000000 0.000000 -0.000000 -0.000000 0.000000 0.000000 -0.000000 0.000000 0.000000 -0.000000 0.000001 -0.000000 -0.000000 0.000001 -0.000000 0.000000 0.000000 0.000000 
